<mxfile host="Electron" agent="Mozilla/5.0 (Windows NT 10.0; Win64; x64) AppleWebKit/537.36 (KHTML, like Gecko) draw.io/28.0.6 Chrome/138.0.7204.100 Electron/37.2.3 Safari/537.36" version="28.0.6">
  <diagram name="Page-1" id="QpZ60mR5EfaWle1fyqZ_">
    <mxGraphModel dx="1028" dy="611" grid="1" gridSize="10" guides="1" tooltips="1" connect="1" arrows="1" fold="1" page="1" pageScale="1" pageWidth="850" pageHeight="1100" math="0" shadow="0">
      <root>
        <mxCell id="0" />
        <mxCell id="1" parent="0" />
        <mxCell id="C9zArqwFe7NC3kj0_H4k-1" value="&lt;font style=&quot;font-size: 22px;&quot;&gt;&lt;b style=&quot;&quot;&gt;Sales Data Mart&lt;/b&gt; (Star Shema)&lt;/font&gt;" style="text;html=1;align=center;verticalAlign=middle;whiteSpace=wrap;rounded=0;" vertex="1" parent="1">
          <mxGeometry x="30" y="40" width="320" height="40" as="geometry" />
        </mxCell>
        <mxCell id="C9zArqwFe7NC3kj0_H4k-6" value="gold.dim_customers" style="shape=table;startSize=30;container=1;collapsible=0;childLayout=tableLayout;fixedRows=1;rowLines=0;fontStyle=1;strokeColor=default;fontSize=13;fontColor=#000000;fillColor=#FFE6CC;" vertex="1" parent="1">
          <mxGeometry x="80" y="120" width="170" height="330" as="geometry" />
        </mxCell>
        <mxCell id="C9zArqwFe7NC3kj0_H4k-7" value="" style="shape=tableRow;horizontal=0;startSize=0;swimlaneHead=0;swimlaneBody=0;top=0;left=0;bottom=0;right=0;collapsible=0;dropTarget=0;fillColor=none;points=[[0,0.5],[1,0.5]];portConstraint=eastwest;strokeColor=inherit;fontSize=16;" vertex="1" parent="C9zArqwFe7NC3kj0_H4k-6">
          <mxGeometry y="30" width="170" height="30" as="geometry" />
        </mxCell>
        <mxCell id="C9zArqwFe7NC3kj0_H4k-8" value="PK" style="shape=partialRectangle;html=1;whiteSpace=wrap;connectable=0;fillColor=none;top=0;left=0;bottom=0;right=0;overflow=hidden;pointerEvents=1;strokeColor=inherit;fontSize=13;" vertex="1" parent="C9zArqwFe7NC3kj0_H4k-7">
          <mxGeometry width="30" height="30" as="geometry">
            <mxRectangle width="30" height="30" as="alternateBounds" />
          </mxGeometry>
        </mxCell>
        <mxCell id="C9zArqwFe7NC3kj0_H4k-9" value="&lt;table style=&quot;border-left-style: none; border-top-style: none; border-right-style: none; border-bottom-style: none; border-collapse: collapse;&quot;&gt;&lt;tbody&gt;&lt;tr&gt;&lt;td style=&quot;border-left-style: none; border-top-style: none; border-right-style: none; border-bottom-style: none; padding-left: 15px;&quot;&gt;&lt;span style=&quot;background-color: light-dark(#ffffff, var(--ge-dark-color, #121212));&quot;&gt;Customer_Key&lt;/span&gt;&lt;/td&gt;&lt;/tr&gt;&lt;/tbody&gt;&lt;/table&gt;" style="shape=partialRectangle;html=1;whiteSpace=wrap;connectable=0;fillColor=none;top=0;left=0;bottom=0;right=0;align=left;spacingLeft=6;overflow=hidden;strokeColor=inherit;fontSize=13;fontStyle=4" vertex="1" parent="C9zArqwFe7NC3kj0_H4k-7">
          <mxGeometry x="30" width="140" height="30" as="geometry">
            <mxRectangle width="140" height="30" as="alternateBounds" />
          </mxGeometry>
        </mxCell>
        <mxCell id="C9zArqwFe7NC3kj0_H4k-10" value="" style="shape=tableRow;horizontal=0;startSize=0;swimlaneHead=0;swimlaneBody=0;top=0;left=0;bottom=0;right=0;collapsible=0;dropTarget=0;fillColor=none;points=[[0,0.5],[1,0.5]];portConstraint=eastwest;strokeColor=inherit;fontSize=16;" vertex="1" parent="C9zArqwFe7NC3kj0_H4k-6">
          <mxGeometry y="60" width="170" height="30" as="geometry" />
        </mxCell>
        <mxCell id="C9zArqwFe7NC3kj0_H4k-11" value="" style="shape=partialRectangle;html=1;whiteSpace=wrap;connectable=0;fillColor=none;top=0;left=0;bottom=0;right=0;overflow=hidden;strokeColor=inherit;fontSize=13;" vertex="1" parent="C9zArqwFe7NC3kj0_H4k-10">
          <mxGeometry width="30" height="30" as="geometry">
            <mxRectangle width="30" height="30" as="alternateBounds" />
          </mxGeometry>
        </mxCell>
        <mxCell id="C9zArqwFe7NC3kj0_H4k-12" value="&lt;table style=&quot;border-left-style: none; border-top-style: none; border-right-style: none; border-bottom-style: none; border-collapse: collapse;&quot;&gt;&lt;tbody&gt;&lt;tr&gt;&lt;td style=&quot;border-left-style: none; border-top-style: none; border-right-style: none; border-bottom-style: none; padding-left: 15px;&quot;&gt;Customer_ID&lt;/td&gt;&lt;/tr&gt;&lt;/tbody&gt;&lt;/table&gt;" style="shape=partialRectangle;html=1;whiteSpace=wrap;connectable=0;fillColor=none;top=0;left=0;bottom=0;right=0;align=left;spacingLeft=6;overflow=hidden;strokeColor=inherit;fontSize=13;" vertex="1" parent="C9zArqwFe7NC3kj0_H4k-10">
          <mxGeometry x="30" width="140" height="30" as="geometry">
            <mxRectangle width="140" height="30" as="alternateBounds" />
          </mxGeometry>
        </mxCell>
        <mxCell id="C9zArqwFe7NC3kj0_H4k-16" style="shape=tableRow;horizontal=0;startSize=0;swimlaneHead=0;swimlaneBody=0;top=0;left=0;bottom=0;right=0;collapsible=0;dropTarget=0;fillColor=none;points=[[0,0.5],[1,0.5]];portConstraint=eastwest;strokeColor=inherit;fontSize=16;" vertex="1" parent="C9zArqwFe7NC3kj0_H4k-6">
          <mxGeometry y="90" width="170" height="30" as="geometry" />
        </mxCell>
        <mxCell id="C9zArqwFe7NC3kj0_H4k-17" style="shape=partialRectangle;html=1;whiteSpace=wrap;connectable=0;fillColor=none;top=0;left=0;bottom=0;right=0;overflow=hidden;strokeColor=inherit;fontSize=16;" vertex="1" parent="C9zArqwFe7NC3kj0_H4k-16">
          <mxGeometry width="30" height="30" as="geometry">
            <mxRectangle width="30" height="30" as="alternateBounds" />
          </mxGeometry>
        </mxCell>
        <mxCell id="C9zArqwFe7NC3kj0_H4k-18" value="&lt;table style=&quot;border-left-style: none; border-top-style: none; border-right-style: none; border-bottom-style: none; border-collapse: collapse;&quot;&gt;&lt;tbody&gt;&lt;tr&gt;&lt;td style=&quot;border-left-style: none; border-top-style: none; border-right-style: none; border-bottom-style: none; padding-left: 15px;&quot;&gt;Customer_Number&lt;/td&gt;&lt;td style=&quot;border-left-style: none; border-top-style: none; border-right-style: none; border-bottom-style: none; padding-left: 15px;&quot;&gt;&lt;font color=&quot;#717171&quot;&gt;&lt;/font&gt;&lt;/td&gt;&lt;/tr&gt;&lt;/tbody&gt;&lt;/table&gt;" style="shape=partialRectangle;html=1;whiteSpace=wrap;connectable=0;fillColor=none;top=0;left=0;bottom=0;right=0;align=left;spacingLeft=6;overflow=hidden;strokeColor=inherit;fontSize=13;" vertex="1" parent="C9zArqwFe7NC3kj0_H4k-16">
          <mxGeometry x="30" width="140" height="30" as="geometry">
            <mxRectangle width="140" height="30" as="alternateBounds" />
          </mxGeometry>
        </mxCell>
        <mxCell id="C9zArqwFe7NC3kj0_H4k-19" style="shape=tableRow;horizontal=0;startSize=0;swimlaneHead=0;swimlaneBody=0;top=0;left=0;bottom=0;right=0;collapsible=0;dropTarget=0;fillColor=none;points=[[0,0.5],[1,0.5]];portConstraint=eastwest;strokeColor=inherit;fontSize=16;" vertex="1" parent="C9zArqwFe7NC3kj0_H4k-6">
          <mxGeometry y="120" width="170" height="30" as="geometry" />
        </mxCell>
        <mxCell id="C9zArqwFe7NC3kj0_H4k-20" style="shape=partialRectangle;html=1;whiteSpace=wrap;connectable=0;fillColor=none;top=0;left=0;bottom=0;right=0;overflow=hidden;strokeColor=inherit;fontSize=16;" vertex="1" parent="C9zArqwFe7NC3kj0_H4k-19">
          <mxGeometry width="30" height="30" as="geometry">
            <mxRectangle width="30" height="30" as="alternateBounds" />
          </mxGeometry>
        </mxCell>
        <mxCell id="C9zArqwFe7NC3kj0_H4k-21" value="&lt;table style=&quot;border-left-style: none; border-top-style: none; border-right-style: none; border-bottom-style: none; border-collapse: collapse;&quot;&gt;&lt;tbody&gt;&lt;tr&gt;&lt;td style=&quot;border-left-style: none; border-top-style: none; border-right-style: none; border-bottom-style: none; padding-left: 15px;&quot;&gt;First_Name&lt;/td&gt;&lt;/tr&gt;&lt;/tbody&gt;&lt;/table&gt;" style="shape=partialRectangle;html=1;whiteSpace=wrap;connectable=0;fillColor=none;top=0;left=0;bottom=0;right=0;align=left;spacingLeft=6;overflow=hidden;strokeColor=inherit;fontSize=13;" vertex="1" parent="C9zArqwFe7NC3kj0_H4k-19">
          <mxGeometry x="30" width="140" height="30" as="geometry">
            <mxRectangle width="140" height="30" as="alternateBounds" />
          </mxGeometry>
        </mxCell>
        <mxCell id="C9zArqwFe7NC3kj0_H4k-22" style="shape=tableRow;horizontal=0;startSize=0;swimlaneHead=0;swimlaneBody=0;top=0;left=0;bottom=0;right=0;collapsible=0;dropTarget=0;fillColor=none;points=[[0,0.5],[1,0.5]];portConstraint=eastwest;strokeColor=inherit;fontSize=16;" vertex="1" parent="C9zArqwFe7NC3kj0_H4k-6">
          <mxGeometry y="150" width="170" height="30" as="geometry" />
        </mxCell>
        <mxCell id="C9zArqwFe7NC3kj0_H4k-23" style="shape=partialRectangle;html=1;whiteSpace=wrap;connectable=0;fillColor=none;top=0;left=0;bottom=0;right=0;overflow=hidden;strokeColor=inherit;fontSize=16;" vertex="1" parent="C9zArqwFe7NC3kj0_H4k-22">
          <mxGeometry width="30" height="30" as="geometry">
            <mxRectangle width="30" height="30" as="alternateBounds" />
          </mxGeometry>
        </mxCell>
        <mxCell id="C9zArqwFe7NC3kj0_H4k-24" value="&lt;table style=&quot;border-left-style: none; border-top-style: none; border-right-style: none; border-bottom-style: none; border-collapse: collapse;&quot;&gt;&lt;tbody&gt;&lt;tr&gt;&lt;td style=&quot;border-left-style: none; border-top-style: none; border-right-style: none; border-bottom-style: none; padding-left: 15px;&quot;&gt;Last_name&lt;/td&gt;&lt;/tr&gt;&lt;/tbody&gt;&lt;/table&gt;" style="shape=partialRectangle;html=1;whiteSpace=wrap;connectable=0;fillColor=none;top=0;left=0;bottom=0;right=0;align=left;spacingLeft=6;overflow=hidden;strokeColor=inherit;fontSize=13;" vertex="1" parent="C9zArqwFe7NC3kj0_H4k-22">
          <mxGeometry x="30" width="140" height="30" as="geometry">
            <mxRectangle width="140" height="30" as="alternateBounds" />
          </mxGeometry>
        </mxCell>
        <mxCell id="C9zArqwFe7NC3kj0_H4k-28" style="shape=tableRow;horizontal=0;startSize=0;swimlaneHead=0;swimlaneBody=0;top=0;left=0;bottom=0;right=0;collapsible=0;dropTarget=0;fillColor=none;points=[[0,0.5],[1,0.5]];portConstraint=eastwest;strokeColor=inherit;fontSize=16;" vertex="1" parent="C9zArqwFe7NC3kj0_H4k-6">
          <mxGeometry y="180" width="170" height="30" as="geometry" />
        </mxCell>
        <mxCell id="C9zArqwFe7NC3kj0_H4k-29" style="shape=partialRectangle;html=1;whiteSpace=wrap;connectable=0;fillColor=none;top=0;left=0;bottom=0;right=0;overflow=hidden;strokeColor=inherit;fontSize=16;" vertex="1" parent="C9zArqwFe7NC3kj0_H4k-28">
          <mxGeometry width="30" height="30" as="geometry">
            <mxRectangle width="30" height="30" as="alternateBounds" />
          </mxGeometry>
        </mxCell>
        <mxCell id="C9zArqwFe7NC3kj0_H4k-30" value="&lt;table style=&quot;border-left-style: none; border-top-style: none; border-right-style: none; border-bottom-style: none; border-collapse: collapse;&quot;&gt;&lt;tbody&gt;&lt;tr&gt;&lt;td style=&quot;border-left-style: none; border-top-style: none; border-right-style: none; border-bottom-style: none; padding-left: 15px;&quot;&gt;Marital_Status&lt;/td&gt;&lt;/tr&gt;&lt;/tbody&gt;&lt;/table&gt;" style="shape=partialRectangle;html=1;whiteSpace=wrap;connectable=0;fillColor=none;top=0;left=0;bottom=0;right=0;align=left;spacingLeft=6;overflow=hidden;strokeColor=inherit;fontSize=13;" vertex="1" parent="C9zArqwFe7NC3kj0_H4k-28">
          <mxGeometry x="30" width="140" height="30" as="geometry">
            <mxRectangle width="140" height="30" as="alternateBounds" />
          </mxGeometry>
        </mxCell>
        <mxCell id="C9zArqwFe7NC3kj0_H4k-31" style="shape=tableRow;horizontal=0;startSize=0;swimlaneHead=0;swimlaneBody=0;top=0;left=0;bottom=0;right=0;collapsible=0;dropTarget=0;fillColor=none;points=[[0,0.5],[1,0.5]];portConstraint=eastwest;strokeColor=inherit;fontSize=16;" vertex="1" parent="C9zArqwFe7NC3kj0_H4k-6">
          <mxGeometry y="210" width="170" height="30" as="geometry" />
        </mxCell>
        <mxCell id="C9zArqwFe7NC3kj0_H4k-32" style="shape=partialRectangle;html=1;whiteSpace=wrap;connectable=0;fillColor=none;top=0;left=0;bottom=0;right=0;overflow=hidden;strokeColor=inherit;fontSize=16;" vertex="1" parent="C9zArqwFe7NC3kj0_H4k-31">
          <mxGeometry width="30" height="30" as="geometry">
            <mxRectangle width="30" height="30" as="alternateBounds" />
          </mxGeometry>
        </mxCell>
        <mxCell id="C9zArqwFe7NC3kj0_H4k-33" value="&lt;table style=&quot;border-left-style: none; border-top-style: none; border-right-style: none; border-bottom-style: none; border-collapse: collapse;&quot;&gt;&lt;tbody&gt;&lt;tr&gt;&lt;td style=&quot;border-left-style: none; border-top-style: none; border-right-style: none; border-bottom-style: none; padding-left: 15px;&quot;&gt;Gender&lt;/td&gt;&lt;/tr&gt;&lt;/tbody&gt;&lt;/table&gt;" style="shape=partialRectangle;html=1;whiteSpace=wrap;connectable=0;fillColor=none;top=0;left=0;bottom=0;right=0;align=left;spacingLeft=6;overflow=hidden;strokeColor=inherit;fontSize=13;" vertex="1" parent="C9zArqwFe7NC3kj0_H4k-31">
          <mxGeometry x="30" width="140" height="30" as="geometry">
            <mxRectangle width="140" height="30" as="alternateBounds" />
          </mxGeometry>
        </mxCell>
        <mxCell id="C9zArqwFe7NC3kj0_H4k-13" value="" style="shape=tableRow;horizontal=0;startSize=0;swimlaneHead=0;swimlaneBody=0;top=0;left=0;bottom=0;right=0;collapsible=0;dropTarget=0;fillColor=none;points=[[0,0.5],[1,0.5]];portConstraint=eastwest;strokeColor=inherit;fontSize=16;" vertex="1" parent="C9zArqwFe7NC3kj0_H4k-6">
          <mxGeometry y="240" width="170" height="30" as="geometry" />
        </mxCell>
        <mxCell id="C9zArqwFe7NC3kj0_H4k-14" value="" style="shape=partialRectangle;html=1;whiteSpace=wrap;connectable=0;fillColor=none;top=0;left=0;bottom=0;right=0;overflow=hidden;strokeColor=inherit;fontSize=13;" vertex="1" parent="C9zArqwFe7NC3kj0_H4k-13">
          <mxGeometry width="30" height="30" as="geometry">
            <mxRectangle width="30" height="30" as="alternateBounds" />
          </mxGeometry>
        </mxCell>
        <mxCell id="C9zArqwFe7NC3kj0_H4k-15" value="&lt;table style=&quot;border-left-style: none; border-top-style: none; border-right-style: none; border-bottom-style: none; border-collapse: collapse;&quot;&gt;&lt;tbody&gt;&lt;tr&gt;&lt;td style=&quot;border-left-style: none; border-top-style: none; border-right-style: none; border-bottom-style: none; padding-left: 15px;&quot;&gt;Create_Date&lt;/td&gt;&lt;/tr&gt;&lt;/tbody&gt;&lt;/table&gt;" style="shape=partialRectangle;html=1;whiteSpace=wrap;connectable=0;fillColor=none;top=0;left=0;bottom=0;right=0;align=left;spacingLeft=6;overflow=hidden;strokeColor=inherit;fontSize=13;" vertex="1" parent="C9zArqwFe7NC3kj0_H4k-13">
          <mxGeometry x="30" width="140" height="30" as="geometry">
            <mxRectangle width="140" height="30" as="alternateBounds" />
          </mxGeometry>
        </mxCell>
        <mxCell id="C9zArqwFe7NC3kj0_H4k-34" style="shape=tableRow;horizontal=0;startSize=0;swimlaneHead=0;swimlaneBody=0;top=0;left=0;bottom=0;right=0;collapsible=0;dropTarget=0;fillColor=none;points=[[0,0.5],[1,0.5]];portConstraint=eastwest;strokeColor=inherit;fontSize=16;" vertex="1" parent="C9zArqwFe7NC3kj0_H4k-6">
          <mxGeometry y="270" width="170" height="30" as="geometry" />
        </mxCell>
        <mxCell id="C9zArqwFe7NC3kj0_H4k-35" style="shape=partialRectangle;html=1;whiteSpace=wrap;connectable=0;fillColor=none;top=0;left=0;bottom=0;right=0;overflow=hidden;strokeColor=inherit;fontSize=16;" vertex="1" parent="C9zArqwFe7NC3kj0_H4k-34">
          <mxGeometry width="30" height="30" as="geometry">
            <mxRectangle width="30" height="30" as="alternateBounds" />
          </mxGeometry>
        </mxCell>
        <mxCell id="C9zArqwFe7NC3kj0_H4k-36" value="&lt;table style=&quot;border-left-style: none; border-top-style: none; border-right-style: none; border-bottom-style: none; border-collapse: collapse;&quot;&gt;&lt;tbody&gt;&lt;tr&gt;&lt;td style=&quot;border-left-style: none; border-top-style: none; border-right-style: none; border-bottom-style: none; padding-left: 15px;&quot;&gt;Birth_Date&lt;/td&gt;&lt;/tr&gt;&lt;/tbody&gt;&lt;/table&gt;" style="shape=partialRectangle;html=1;whiteSpace=wrap;connectable=0;fillColor=none;top=0;left=0;bottom=0;right=0;align=left;spacingLeft=6;overflow=hidden;strokeColor=inherit;fontSize=13;" vertex="1" parent="C9zArqwFe7NC3kj0_H4k-34">
          <mxGeometry x="30" width="140" height="30" as="geometry">
            <mxRectangle width="140" height="30" as="alternateBounds" />
          </mxGeometry>
        </mxCell>
        <mxCell id="C9zArqwFe7NC3kj0_H4k-25" style="shape=tableRow;horizontal=0;startSize=0;swimlaneHead=0;swimlaneBody=0;top=0;left=0;bottom=0;right=0;collapsible=0;dropTarget=0;fillColor=none;points=[[0,0.5],[1,0.5]];portConstraint=eastwest;strokeColor=inherit;fontSize=16;" vertex="1" parent="C9zArqwFe7NC3kj0_H4k-6">
          <mxGeometry y="300" width="170" height="30" as="geometry" />
        </mxCell>
        <mxCell id="C9zArqwFe7NC3kj0_H4k-26" style="shape=partialRectangle;html=1;whiteSpace=wrap;connectable=0;fillColor=none;top=0;left=0;bottom=0;right=0;overflow=hidden;strokeColor=inherit;fontSize=16;" vertex="1" parent="C9zArqwFe7NC3kj0_H4k-25">
          <mxGeometry width="30" height="30" as="geometry">
            <mxRectangle width="30" height="30" as="alternateBounds" />
          </mxGeometry>
        </mxCell>
        <mxCell id="C9zArqwFe7NC3kj0_H4k-27" value="&lt;table style=&quot;border-left-style: none; border-top-style: none; border-right-style: none; border-bottom-style: none; border-collapse: collapse;&quot;&gt;&lt;tbody&gt;&lt;tr&gt;&lt;td style=&quot;border-left-style: none; border-top-style: none; border-right-style: none; border-bottom-style: none; padding-left: 15px;&quot;&gt;Country&lt;/td&gt;&lt;/tr&gt;&lt;/tbody&gt;&lt;/table&gt;" style="shape=partialRectangle;html=1;whiteSpace=wrap;connectable=0;fillColor=none;top=0;left=0;bottom=0;right=0;align=left;spacingLeft=6;overflow=hidden;strokeColor=inherit;fontSize=13;" vertex="1" parent="C9zArqwFe7NC3kj0_H4k-25">
          <mxGeometry x="30" width="140" height="30" as="geometry">
            <mxRectangle width="140" height="30" as="alternateBounds" />
          </mxGeometry>
        </mxCell>
        <mxCell id="C9zArqwFe7NC3kj0_H4k-37" value="gold.fact_sales" style="shape=table;startSize=30;container=1;collapsible=0;childLayout=tableLayout;fixedRows=1;rowLines=0;fontStyle=1;strokeColor=default;fontSize=13;fontColor=#000000;fillColor=#A9C4EB;" vertex="1" parent="1">
          <mxGeometry x="360" y="120" width="170" height="300" as="geometry" />
        </mxCell>
        <mxCell id="C9zArqwFe7NC3kj0_H4k-38" value="" style="shape=tableRow;horizontal=0;startSize=0;swimlaneHead=0;swimlaneBody=0;top=0;left=0;bottom=0;right=0;collapsible=0;dropTarget=0;fillColor=none;points=[[0,0.5],[1,0.5]];portConstraint=eastwest;strokeColor=inherit;fontSize=16;" vertex="1" parent="C9zArqwFe7NC3kj0_H4k-37">
          <mxGeometry y="30" width="170" height="30" as="geometry" />
        </mxCell>
        <mxCell id="C9zArqwFe7NC3kj0_H4k-39" value="" style="shape=partialRectangle;html=1;whiteSpace=wrap;connectable=0;fillColor=none;top=0;left=0;bottom=0;right=0;overflow=hidden;pointerEvents=1;strokeColor=inherit;fontSize=13;" vertex="1" parent="C9zArqwFe7NC3kj0_H4k-38">
          <mxGeometry width="30" height="30" as="geometry">
            <mxRectangle width="30" height="30" as="alternateBounds" />
          </mxGeometry>
        </mxCell>
        <mxCell id="C9zArqwFe7NC3kj0_H4k-40" value="&lt;table style=&quot;border-left-style: none; border-top-style: none; border-right-style: none; border-bottom-style: none; border-collapse: collapse;&quot;&gt;&lt;tbody&gt;&lt;tr&gt;&lt;td style=&quot;border-left-style: none; border-top-style: none; border-right-style: none; border-bottom-style: none; padding-left: 15px;&quot;&gt;Order_Number&lt;/td&gt;&lt;/tr&gt;&lt;/tbody&gt;&lt;/table&gt;" style="shape=partialRectangle;html=1;whiteSpace=wrap;connectable=0;fillColor=none;top=0;left=0;bottom=0;right=0;align=left;spacingLeft=6;overflow=hidden;strokeColor=inherit;fontSize=13;" vertex="1" parent="C9zArqwFe7NC3kj0_H4k-38">
          <mxGeometry x="30" width="140" height="30" as="geometry">
            <mxRectangle width="140" height="30" as="alternateBounds" />
          </mxGeometry>
        </mxCell>
        <mxCell id="C9zArqwFe7NC3kj0_H4k-41" value="" style="shape=tableRow;horizontal=0;startSize=0;swimlaneHead=0;swimlaneBody=0;top=0;left=0;bottom=0;right=0;collapsible=0;dropTarget=0;fillColor=none;points=[[0,0.5],[1,0.5]];portConstraint=eastwest;strokeColor=inherit;fontSize=16;" vertex="1" parent="C9zArqwFe7NC3kj0_H4k-37">
          <mxGeometry y="60" width="170" height="30" as="geometry" />
        </mxCell>
        <mxCell id="C9zArqwFe7NC3kj0_H4k-42" value="FK" style="shape=partialRectangle;html=1;whiteSpace=wrap;connectable=0;fillColor=none;top=0;left=0;bottom=0;right=0;overflow=hidden;strokeColor=inherit;fontSize=13;" vertex="1" parent="C9zArqwFe7NC3kj0_H4k-41">
          <mxGeometry width="30" height="30" as="geometry">
            <mxRectangle width="30" height="30" as="alternateBounds" />
          </mxGeometry>
        </mxCell>
        <mxCell id="C9zArqwFe7NC3kj0_H4k-43" value="&lt;table style=&quot;border-left-style: none; border-top-style: none; border-right-style: none; border-bottom-style: none; border-collapse: collapse;&quot;&gt;&lt;tbody&gt;&lt;tr&gt;&lt;td style=&quot;border-left-style: none; border-top-style: none; border-right-style: none; border-bottom-style: none; padding-left: 15px;&quot;&gt;Product_Key&lt;/td&gt;&lt;/tr&gt;&lt;/tbody&gt;&lt;/table&gt;" style="shape=partialRectangle;html=1;whiteSpace=wrap;connectable=0;fillColor=none;top=0;left=0;bottom=0;right=0;align=left;spacingLeft=6;overflow=hidden;strokeColor=inherit;fontSize=13;fontStyle=4" vertex="1" parent="C9zArqwFe7NC3kj0_H4k-41">
          <mxGeometry x="30" width="140" height="30" as="geometry">
            <mxRectangle width="140" height="30" as="alternateBounds" />
          </mxGeometry>
        </mxCell>
        <mxCell id="C9zArqwFe7NC3kj0_H4k-44" style="shape=tableRow;horizontal=0;startSize=0;swimlaneHead=0;swimlaneBody=0;top=0;left=0;bottom=0;right=0;collapsible=0;dropTarget=0;fillColor=none;points=[[0,0.5],[1,0.5]];portConstraint=eastwest;strokeColor=inherit;fontSize=16;" vertex="1" parent="C9zArqwFe7NC3kj0_H4k-37">
          <mxGeometry y="90" width="170" height="30" as="geometry" />
        </mxCell>
        <mxCell id="C9zArqwFe7NC3kj0_H4k-45" value="FK" style="shape=partialRectangle;html=1;whiteSpace=wrap;connectable=0;fillColor=none;top=0;left=0;bottom=0;right=0;overflow=hidden;strokeColor=inherit;fontSize=13;" vertex="1" parent="C9zArqwFe7NC3kj0_H4k-44">
          <mxGeometry width="30" height="30" as="geometry">
            <mxRectangle width="30" height="30" as="alternateBounds" />
          </mxGeometry>
        </mxCell>
        <mxCell id="C9zArqwFe7NC3kj0_H4k-46" value="&lt;table style=&quot;border-left-style: none; border-top-style: none; border-right-style: none; border-bottom-style: none; border-collapse: collapse;&quot;&gt;&lt;tbody&gt;&lt;tr&gt;&lt;td style=&quot;border-left-style: none; border-top-style: none; border-right-style: none; border-bottom-style: none; padding-left: 15px;&quot;&gt;Customer_Key&lt;/td&gt;&lt;/tr&gt;&lt;/tbody&gt;&lt;/table&gt;" style="shape=partialRectangle;html=1;whiteSpace=wrap;connectable=0;fillColor=none;top=0;left=0;bottom=0;right=0;align=left;spacingLeft=6;overflow=hidden;strokeColor=inherit;fontSize=13;fontStyle=4" vertex="1" parent="C9zArqwFe7NC3kj0_H4k-44">
          <mxGeometry x="30" width="140" height="30" as="geometry">
            <mxRectangle width="140" height="30" as="alternateBounds" />
          </mxGeometry>
        </mxCell>
        <mxCell id="C9zArqwFe7NC3kj0_H4k-47" style="shape=tableRow;horizontal=0;startSize=0;swimlaneHead=0;swimlaneBody=0;top=0;left=0;bottom=0;right=0;collapsible=0;dropTarget=0;fillColor=none;points=[[0,0.5],[1,0.5]];portConstraint=eastwest;strokeColor=inherit;fontSize=16;" vertex="1" parent="C9zArqwFe7NC3kj0_H4k-37">
          <mxGeometry y="120" width="170" height="30" as="geometry" />
        </mxCell>
        <mxCell id="C9zArqwFe7NC3kj0_H4k-48" style="shape=partialRectangle;html=1;whiteSpace=wrap;connectable=0;fillColor=none;top=0;left=0;bottom=0;right=0;overflow=hidden;strokeColor=inherit;fontSize=16;" vertex="1" parent="C9zArqwFe7NC3kj0_H4k-47">
          <mxGeometry width="30" height="30" as="geometry">
            <mxRectangle width="30" height="30" as="alternateBounds" />
          </mxGeometry>
        </mxCell>
        <mxCell id="C9zArqwFe7NC3kj0_H4k-49" value="&lt;table style=&quot;border-left-style: none; border-top-style: none; border-right-style: none; border-bottom-style: none; border-collapse: collapse;&quot;&gt;&lt;tbody&gt;&lt;tr&gt;&lt;td style=&quot;border-left-style: none; border-top-style: none; border-right-style: none; border-bottom-style: none; padding-left: 15px;&quot;&gt;Order_Date&lt;/td&gt;&lt;/tr&gt;&lt;/tbody&gt;&lt;/table&gt;" style="shape=partialRectangle;html=1;whiteSpace=wrap;connectable=0;fillColor=none;top=0;left=0;bottom=0;right=0;align=left;spacingLeft=6;overflow=hidden;strokeColor=inherit;fontSize=13;" vertex="1" parent="C9zArqwFe7NC3kj0_H4k-47">
          <mxGeometry x="30" width="140" height="30" as="geometry">
            <mxRectangle width="140" height="30" as="alternateBounds" />
          </mxGeometry>
        </mxCell>
        <mxCell id="C9zArqwFe7NC3kj0_H4k-50" style="shape=tableRow;horizontal=0;startSize=0;swimlaneHead=0;swimlaneBody=0;top=0;left=0;bottom=0;right=0;collapsible=0;dropTarget=0;fillColor=none;points=[[0,0.5],[1,0.5]];portConstraint=eastwest;strokeColor=inherit;fontSize=16;" vertex="1" parent="C9zArqwFe7NC3kj0_H4k-37">
          <mxGeometry y="150" width="170" height="30" as="geometry" />
        </mxCell>
        <mxCell id="C9zArqwFe7NC3kj0_H4k-51" style="shape=partialRectangle;html=1;whiteSpace=wrap;connectable=0;fillColor=none;top=0;left=0;bottom=0;right=0;overflow=hidden;strokeColor=inherit;fontSize=16;" vertex="1" parent="C9zArqwFe7NC3kj0_H4k-50">
          <mxGeometry width="30" height="30" as="geometry">
            <mxRectangle width="30" height="30" as="alternateBounds" />
          </mxGeometry>
        </mxCell>
        <mxCell id="C9zArqwFe7NC3kj0_H4k-52" value="&lt;table style=&quot;border-left-style: none; border-top-style: none; border-right-style: none; border-bottom-style: none; border-collapse: collapse;&quot;&gt;&lt;tbody&gt;&lt;tr&gt;&lt;td style=&quot;border-left-style: none; border-top-style: none; border-right-style: none; border-bottom-style: none; padding-left: 15px;&quot;&gt;Shipping_Date&lt;/td&gt;&lt;/tr&gt;&lt;/tbody&gt;&lt;/table&gt;" style="shape=partialRectangle;html=1;whiteSpace=wrap;connectable=0;fillColor=none;top=0;left=0;bottom=0;right=0;align=left;spacingLeft=6;overflow=hidden;strokeColor=inherit;fontSize=13;" vertex="1" parent="C9zArqwFe7NC3kj0_H4k-50">
          <mxGeometry x="30" width="140" height="30" as="geometry">
            <mxRectangle width="140" height="30" as="alternateBounds" />
          </mxGeometry>
        </mxCell>
        <mxCell id="C9zArqwFe7NC3kj0_H4k-53" style="shape=tableRow;horizontal=0;startSize=0;swimlaneHead=0;swimlaneBody=0;top=0;left=0;bottom=0;right=0;collapsible=0;dropTarget=0;fillColor=none;points=[[0,0.5],[1,0.5]];portConstraint=eastwest;strokeColor=inherit;fontSize=16;" vertex="1" parent="C9zArqwFe7NC3kj0_H4k-37">
          <mxGeometry y="180" width="170" height="30" as="geometry" />
        </mxCell>
        <mxCell id="C9zArqwFe7NC3kj0_H4k-54" style="shape=partialRectangle;html=1;whiteSpace=wrap;connectable=0;fillColor=none;top=0;left=0;bottom=0;right=0;overflow=hidden;strokeColor=inherit;fontSize=16;" vertex="1" parent="C9zArqwFe7NC3kj0_H4k-53">
          <mxGeometry width="30" height="30" as="geometry">
            <mxRectangle width="30" height="30" as="alternateBounds" />
          </mxGeometry>
        </mxCell>
        <mxCell id="C9zArqwFe7NC3kj0_H4k-55" value="&lt;table style=&quot;border-left-style: none; border-top-style: none; border-right-style: none; border-bottom-style: none; border-collapse: collapse;&quot;&gt;&lt;tbody&gt;&lt;tr&gt;&lt;td style=&quot;border-left-style: none; border-top-style: none; border-right-style: none; border-bottom-style: none; padding-left: 15px;&quot;&gt;Due_Date&lt;/td&gt;&lt;/tr&gt;&lt;/tbody&gt;&lt;/table&gt;" style="shape=partialRectangle;html=1;whiteSpace=wrap;connectable=0;fillColor=none;top=0;left=0;bottom=0;right=0;align=left;spacingLeft=6;overflow=hidden;strokeColor=inherit;fontSize=13;" vertex="1" parent="C9zArqwFe7NC3kj0_H4k-53">
          <mxGeometry x="30" width="140" height="30" as="geometry">
            <mxRectangle width="140" height="30" as="alternateBounds" />
          </mxGeometry>
        </mxCell>
        <mxCell id="C9zArqwFe7NC3kj0_H4k-56" style="shape=tableRow;horizontal=0;startSize=0;swimlaneHead=0;swimlaneBody=0;top=0;left=0;bottom=0;right=0;collapsible=0;dropTarget=0;fillColor=none;points=[[0,0.5],[1,0.5]];portConstraint=eastwest;strokeColor=inherit;fontSize=16;" vertex="1" parent="C9zArqwFe7NC3kj0_H4k-37">
          <mxGeometry y="210" width="170" height="30" as="geometry" />
        </mxCell>
        <mxCell id="C9zArqwFe7NC3kj0_H4k-57" style="shape=partialRectangle;html=1;whiteSpace=wrap;connectable=0;fillColor=none;top=0;left=0;bottom=0;right=0;overflow=hidden;strokeColor=inherit;fontSize=16;" vertex="1" parent="C9zArqwFe7NC3kj0_H4k-56">
          <mxGeometry width="30" height="30" as="geometry">
            <mxRectangle width="30" height="30" as="alternateBounds" />
          </mxGeometry>
        </mxCell>
        <mxCell id="C9zArqwFe7NC3kj0_H4k-58" value="&lt;table style=&quot;border-left-style: none; border-top-style: none; border-right-style: none; border-bottom-style: none; border-collapse: collapse;&quot;&gt;&lt;tbody&gt;&lt;tr&gt;&lt;td style=&quot;border-left-style: none; border-top-style: none; border-right-style: none; border-bottom-style: none; padding-left: 15px;&quot;&gt;Sales_Amount&lt;/td&gt;&lt;/tr&gt;&lt;/tbody&gt;&lt;/table&gt;" style="shape=partialRectangle;html=1;whiteSpace=wrap;connectable=0;fillColor=none;top=0;left=0;bottom=0;right=0;align=left;spacingLeft=6;overflow=hidden;strokeColor=inherit;fontSize=13;" vertex="1" parent="C9zArqwFe7NC3kj0_H4k-56">
          <mxGeometry x="30" width="140" height="30" as="geometry">
            <mxRectangle width="140" height="30" as="alternateBounds" />
          </mxGeometry>
        </mxCell>
        <mxCell id="C9zArqwFe7NC3kj0_H4k-59" value="" style="shape=tableRow;horizontal=0;startSize=0;swimlaneHead=0;swimlaneBody=0;top=0;left=0;bottom=0;right=0;collapsible=0;dropTarget=0;fillColor=none;points=[[0,0.5],[1,0.5]];portConstraint=eastwest;strokeColor=inherit;fontSize=16;" vertex="1" parent="C9zArqwFe7NC3kj0_H4k-37">
          <mxGeometry y="240" width="170" height="30" as="geometry" />
        </mxCell>
        <mxCell id="C9zArqwFe7NC3kj0_H4k-60" value="" style="shape=partialRectangle;html=1;whiteSpace=wrap;connectable=0;fillColor=none;top=0;left=0;bottom=0;right=0;overflow=hidden;strokeColor=inherit;fontSize=13;" vertex="1" parent="C9zArqwFe7NC3kj0_H4k-59">
          <mxGeometry width="30" height="30" as="geometry">
            <mxRectangle width="30" height="30" as="alternateBounds" />
          </mxGeometry>
        </mxCell>
        <mxCell id="C9zArqwFe7NC3kj0_H4k-61" value="&lt;table style=&quot;border-left-style: none; border-top-style: none; border-right-style: none; border-bottom-style: none; border-collapse: collapse;&quot;&gt;&lt;tbody&gt;&lt;tr&gt;&lt;td style=&quot;border-left-style: none; border-top-style: none; border-right-style: none; border-bottom-style: none; padding-left: 15px;&quot;&gt;Quantity&lt;/td&gt;&lt;/tr&gt;&lt;/tbody&gt;&lt;/table&gt;" style="shape=partialRectangle;html=1;whiteSpace=wrap;connectable=0;fillColor=none;top=0;left=0;bottom=0;right=0;align=left;spacingLeft=6;overflow=hidden;strokeColor=inherit;fontSize=13;" vertex="1" parent="C9zArqwFe7NC3kj0_H4k-59">
          <mxGeometry x="30" width="140" height="30" as="geometry">
            <mxRectangle width="140" height="30" as="alternateBounds" />
          </mxGeometry>
        </mxCell>
        <mxCell id="C9zArqwFe7NC3kj0_H4k-62" style="shape=tableRow;horizontal=0;startSize=0;swimlaneHead=0;swimlaneBody=0;top=0;left=0;bottom=0;right=0;collapsible=0;dropTarget=0;fillColor=none;points=[[0,0.5],[1,0.5]];portConstraint=eastwest;strokeColor=inherit;fontSize=16;" vertex="1" parent="C9zArqwFe7NC3kj0_H4k-37">
          <mxGeometry y="270" width="170" height="30" as="geometry" />
        </mxCell>
        <mxCell id="C9zArqwFe7NC3kj0_H4k-63" style="shape=partialRectangle;html=1;whiteSpace=wrap;connectable=0;fillColor=none;top=0;left=0;bottom=0;right=0;overflow=hidden;strokeColor=inherit;fontSize=16;" vertex="1" parent="C9zArqwFe7NC3kj0_H4k-62">
          <mxGeometry width="30" height="30" as="geometry">
            <mxRectangle width="30" height="30" as="alternateBounds" />
          </mxGeometry>
        </mxCell>
        <mxCell id="C9zArqwFe7NC3kj0_H4k-64" value="&lt;table style=&quot;border-left-style: none; border-top-style: none; border-right-style: none; border-bottom-style: none; border-collapse: collapse;&quot;&gt;&lt;tbody&gt;&lt;tr&gt;&lt;td style=&quot;border-left-style: none; border-top-style: none; border-right-style: none; border-bottom-style: none; padding-left: 15px;&quot;&gt;Price&lt;/td&gt;&lt;/tr&gt;&lt;/tbody&gt;&lt;/table&gt;" style="shape=partialRectangle;html=1;whiteSpace=wrap;connectable=0;fillColor=none;top=0;left=0;bottom=0;right=0;align=left;spacingLeft=6;overflow=hidden;strokeColor=inherit;fontSize=13;" vertex="1" parent="C9zArqwFe7NC3kj0_H4k-62">
          <mxGeometry x="30" width="140" height="30" as="geometry">
            <mxRectangle width="140" height="30" as="alternateBounds" />
          </mxGeometry>
        </mxCell>
        <mxCell id="C9zArqwFe7NC3kj0_H4k-68" value="gold.dim_products" style="shape=table;startSize=30;container=1;collapsible=0;childLayout=tableLayout;fixedRows=1;rowLines=0;fontStyle=1;strokeColor=default;fontSize=13;fillColor=#FFE6CC;fontColor=#000000;" vertex="1" parent="1">
          <mxGeometry x="640" y="120" width="160" height="360" as="geometry" />
        </mxCell>
        <mxCell id="C9zArqwFe7NC3kj0_H4k-69" value="" style="shape=tableRow;horizontal=0;startSize=0;swimlaneHead=0;swimlaneBody=0;top=0;left=0;bottom=0;right=0;collapsible=0;dropTarget=0;fillColor=none;points=[[0,0.5],[1,0.5]];portConstraint=eastwest;strokeColor=inherit;fontSize=16;" vertex="1" parent="C9zArqwFe7NC3kj0_H4k-68">
          <mxGeometry y="30" width="160" height="30" as="geometry" />
        </mxCell>
        <mxCell id="C9zArqwFe7NC3kj0_H4k-70" value="PK" style="shape=partialRectangle;html=1;whiteSpace=wrap;connectable=0;fillColor=none;top=0;left=0;bottom=0;right=0;overflow=hidden;pointerEvents=1;strokeColor=inherit;fontSize=13;" vertex="1" parent="C9zArqwFe7NC3kj0_H4k-69">
          <mxGeometry width="28" height="30" as="geometry">
            <mxRectangle width="28" height="30" as="alternateBounds" />
          </mxGeometry>
        </mxCell>
        <mxCell id="C9zArqwFe7NC3kj0_H4k-71" value="&lt;table style=&quot;border-left-style: none; border-top-style: none; border-right-style: none; border-bottom-style: none; border-collapse: collapse;&quot;&gt;&lt;tbody&gt;&lt;tr&gt;&lt;td style=&quot;border-left-style: none; border-top-style: none; border-right-style: none; border-bottom-style: none; padding-left: 15px;&quot;&gt;Product_Key&lt;/td&gt;&lt;/tr&gt;&lt;/tbody&gt;&lt;/table&gt;" style="shape=partialRectangle;html=1;whiteSpace=wrap;connectable=0;fillColor=none;top=0;left=0;bottom=0;right=0;align=left;spacingLeft=6;overflow=hidden;strokeColor=inherit;fontSize=13;fontStyle=4" vertex="1" parent="C9zArqwFe7NC3kj0_H4k-69">
          <mxGeometry x="28" width="132" height="30" as="geometry">
            <mxRectangle width="132" height="30" as="alternateBounds" />
          </mxGeometry>
        </mxCell>
        <mxCell id="C9zArqwFe7NC3kj0_H4k-72" value="" style="shape=tableRow;horizontal=0;startSize=0;swimlaneHead=0;swimlaneBody=0;top=0;left=0;bottom=0;right=0;collapsible=0;dropTarget=0;fillColor=none;points=[[0,0.5],[1,0.5]];portConstraint=eastwest;strokeColor=inherit;fontSize=16;" vertex="1" parent="C9zArqwFe7NC3kj0_H4k-68">
          <mxGeometry y="60" width="160" height="30" as="geometry" />
        </mxCell>
        <mxCell id="C9zArqwFe7NC3kj0_H4k-73" value="" style="shape=partialRectangle;html=1;whiteSpace=wrap;connectable=0;fillColor=none;top=0;left=0;bottom=0;right=0;overflow=hidden;strokeColor=inherit;fontSize=13;" vertex="1" parent="C9zArqwFe7NC3kj0_H4k-72">
          <mxGeometry width="28" height="30" as="geometry">
            <mxRectangle width="28" height="30" as="alternateBounds" />
          </mxGeometry>
        </mxCell>
        <mxCell id="C9zArqwFe7NC3kj0_H4k-74" value="&lt;table style=&quot;border-style: none; border-collapse: collapse;&quot;&gt;&lt;tbody&gt;&lt;tr&gt;&lt;td style=&quot;border-style: none; padding-left: 15px;&quot;&gt;&lt;table style=&quot;border-left-style: none; border-top-style: none; border-right-style: none; border-bottom-style: none; border-collapse: collapse;&quot;&gt;&lt;tbody&gt;&lt;tr&gt;&lt;td style=&quot;border-left-style: none; border-top-style: none; border-right-style: none; border-bottom-style: none; padding-left: 15px;&quot;&gt;Product_ID&lt;/td&gt;&lt;/tr&gt;&lt;/tbody&gt;&lt;/table&gt;&lt;/td&gt;&lt;/tr&gt;&lt;/tbody&gt;&lt;/table&gt;" style="shape=partialRectangle;html=1;whiteSpace=wrap;connectable=0;fillColor=none;top=0;left=0;bottom=0;right=0;align=left;spacingLeft=6;overflow=hidden;strokeColor=inherit;fontSize=13;" vertex="1" parent="C9zArqwFe7NC3kj0_H4k-72">
          <mxGeometry x="28" width="132" height="30" as="geometry">
            <mxRectangle width="132" height="30" as="alternateBounds" />
          </mxGeometry>
        </mxCell>
        <mxCell id="C9zArqwFe7NC3kj0_H4k-75" style="shape=tableRow;horizontal=0;startSize=0;swimlaneHead=0;swimlaneBody=0;top=0;left=0;bottom=0;right=0;collapsible=0;dropTarget=0;fillColor=none;points=[[0,0.5],[1,0.5]];portConstraint=eastwest;strokeColor=inherit;fontSize=16;" vertex="1" parent="C9zArqwFe7NC3kj0_H4k-68">
          <mxGeometry y="90" width="160" height="30" as="geometry" />
        </mxCell>
        <mxCell id="C9zArqwFe7NC3kj0_H4k-76" style="shape=partialRectangle;html=1;whiteSpace=wrap;connectable=0;fillColor=none;top=0;left=0;bottom=0;right=0;overflow=hidden;strokeColor=inherit;fontSize=16;" vertex="1" parent="C9zArqwFe7NC3kj0_H4k-75">
          <mxGeometry width="28" height="30" as="geometry">
            <mxRectangle width="28" height="30" as="alternateBounds" />
          </mxGeometry>
        </mxCell>
        <mxCell id="C9zArqwFe7NC3kj0_H4k-77" value="&lt;table style=&quot;border-left-style: none; border-top-style: none; border-right-style: none; border-bottom-style: none; border-collapse: collapse;&quot;&gt;&lt;tbody&gt;&lt;tr&gt;&lt;td style=&quot;border-left-style: none; border-top-style: none; border-right-style: none; border-bottom-style: none; padding-left: 15px;&quot;&gt;Product_Number&lt;/td&gt;&lt;td style=&quot;border-left-style: none; border-top-style: none; border-right-style: none; border-bottom-style: none; padding-left: 15px;&quot;&gt;&lt;font color=&quot;#717171&quot;&gt;&lt;/font&gt;&lt;/td&gt;&lt;/tr&gt;&lt;/tbody&gt;&lt;/table&gt;" style="shape=partialRectangle;html=1;whiteSpace=wrap;connectable=0;fillColor=none;top=0;left=0;bottom=0;right=0;align=left;spacingLeft=6;overflow=hidden;strokeColor=inherit;fontSize=13;" vertex="1" parent="C9zArqwFe7NC3kj0_H4k-75">
          <mxGeometry x="28" width="132" height="30" as="geometry">
            <mxRectangle width="132" height="30" as="alternateBounds" />
          </mxGeometry>
        </mxCell>
        <mxCell id="C9zArqwFe7NC3kj0_H4k-78" style="shape=tableRow;horizontal=0;startSize=0;swimlaneHead=0;swimlaneBody=0;top=0;left=0;bottom=0;right=0;collapsible=0;dropTarget=0;fillColor=none;points=[[0,0.5],[1,0.5]];portConstraint=eastwest;strokeColor=inherit;fontSize=16;" vertex="1" parent="C9zArqwFe7NC3kj0_H4k-68">
          <mxGeometry y="120" width="160" height="30" as="geometry" />
        </mxCell>
        <mxCell id="C9zArqwFe7NC3kj0_H4k-79" style="shape=partialRectangle;html=1;whiteSpace=wrap;connectable=0;fillColor=none;top=0;left=0;bottom=0;right=0;overflow=hidden;strokeColor=inherit;fontSize=16;" vertex="1" parent="C9zArqwFe7NC3kj0_H4k-78">
          <mxGeometry width="28" height="30" as="geometry">
            <mxRectangle width="28" height="30" as="alternateBounds" />
          </mxGeometry>
        </mxCell>
        <mxCell id="C9zArqwFe7NC3kj0_H4k-80" value="&lt;table style=&quot;border-left-style: none; border-top-style: none; border-right-style: none; border-bottom-style: none; border-collapse: collapse;&quot;&gt;&lt;tbody&gt;&lt;tr&gt;&lt;td style=&quot;border-left-style: none; border-top-style: none; border-right-style: none; border-bottom-style: none; padding-left: 15px;&quot;&gt;Product_Name&lt;/td&gt;&lt;/tr&gt;&lt;/tbody&gt;&lt;/table&gt;" style="shape=partialRectangle;html=1;whiteSpace=wrap;connectable=0;fillColor=none;top=0;left=0;bottom=0;right=0;align=left;spacingLeft=6;overflow=hidden;strokeColor=inherit;fontSize=13;" vertex="1" parent="C9zArqwFe7NC3kj0_H4k-78">
          <mxGeometry x="28" width="132" height="30" as="geometry">
            <mxRectangle width="132" height="30" as="alternateBounds" />
          </mxGeometry>
        </mxCell>
        <mxCell id="C9zArqwFe7NC3kj0_H4k-81" style="shape=tableRow;horizontal=0;startSize=0;swimlaneHead=0;swimlaneBody=0;top=0;left=0;bottom=0;right=0;collapsible=0;dropTarget=0;fillColor=none;points=[[0,0.5],[1,0.5]];portConstraint=eastwest;strokeColor=inherit;fontSize=16;" vertex="1" parent="C9zArqwFe7NC3kj0_H4k-68">
          <mxGeometry y="150" width="160" height="30" as="geometry" />
        </mxCell>
        <mxCell id="C9zArqwFe7NC3kj0_H4k-82" style="shape=partialRectangle;html=1;whiteSpace=wrap;connectable=0;fillColor=none;top=0;left=0;bottom=0;right=0;overflow=hidden;strokeColor=inherit;fontSize=16;" vertex="1" parent="C9zArqwFe7NC3kj0_H4k-81">
          <mxGeometry width="28" height="30" as="geometry">
            <mxRectangle width="28" height="30" as="alternateBounds" />
          </mxGeometry>
        </mxCell>
        <mxCell id="C9zArqwFe7NC3kj0_H4k-83" value="&lt;table style=&quot;border-left-style: none; border-top-style: none; border-right-style: none; border-bottom-style: none; border-collapse: collapse;&quot;&gt;&lt;tbody&gt;&lt;tr&gt;&lt;td style=&quot;border-left-style: none; border-top-style: none; border-right-style: none; border-bottom-style: none; padding-left: 15px;&quot;&gt;Category_id&lt;/td&gt;&lt;/tr&gt;&lt;/tbody&gt;&lt;/table&gt;" style="shape=partialRectangle;html=1;whiteSpace=wrap;connectable=0;fillColor=none;top=0;left=0;bottom=0;right=0;align=left;spacingLeft=6;overflow=hidden;strokeColor=inherit;fontSize=13;" vertex="1" parent="C9zArqwFe7NC3kj0_H4k-81">
          <mxGeometry x="28" width="132" height="30" as="geometry">
            <mxRectangle width="132" height="30" as="alternateBounds" />
          </mxGeometry>
        </mxCell>
        <mxCell id="C9zArqwFe7NC3kj0_H4k-84" style="shape=tableRow;horizontal=0;startSize=0;swimlaneHead=0;swimlaneBody=0;top=0;left=0;bottom=0;right=0;collapsible=0;dropTarget=0;fillColor=none;points=[[0,0.5],[1,0.5]];portConstraint=eastwest;strokeColor=inherit;fontSize=16;" vertex="1" parent="C9zArqwFe7NC3kj0_H4k-68">
          <mxGeometry y="180" width="160" height="30" as="geometry" />
        </mxCell>
        <mxCell id="C9zArqwFe7NC3kj0_H4k-85" style="shape=partialRectangle;html=1;whiteSpace=wrap;connectable=0;fillColor=none;top=0;left=0;bottom=0;right=0;overflow=hidden;strokeColor=inherit;fontSize=16;" vertex="1" parent="C9zArqwFe7NC3kj0_H4k-84">
          <mxGeometry width="28" height="30" as="geometry">
            <mxRectangle width="28" height="30" as="alternateBounds" />
          </mxGeometry>
        </mxCell>
        <mxCell id="C9zArqwFe7NC3kj0_H4k-86" value="&lt;table style=&quot;border-left-style: none; border-top-style: none; border-right-style: none; border-bottom-style: none; border-collapse: collapse;&quot;&gt;&lt;tbody&gt;&lt;tr&gt;&lt;td style=&quot;border-left-style: none; border-top-style: none; border-right-style: none; border-bottom-style: none; padding-left: 15px;&quot;&gt;Category&lt;/td&gt;&lt;/tr&gt;&lt;/tbody&gt;&lt;/table&gt;" style="shape=partialRectangle;html=1;whiteSpace=wrap;connectable=0;fillColor=none;top=0;left=0;bottom=0;right=0;align=left;spacingLeft=6;overflow=hidden;strokeColor=inherit;fontSize=13;" vertex="1" parent="C9zArqwFe7NC3kj0_H4k-84">
          <mxGeometry x="28" width="132" height="30" as="geometry">
            <mxRectangle width="132" height="30" as="alternateBounds" />
          </mxGeometry>
        </mxCell>
        <mxCell id="C9zArqwFe7NC3kj0_H4k-87" style="shape=tableRow;horizontal=0;startSize=0;swimlaneHead=0;swimlaneBody=0;top=0;left=0;bottom=0;right=0;collapsible=0;dropTarget=0;fillColor=none;points=[[0,0.5],[1,0.5]];portConstraint=eastwest;strokeColor=inherit;fontSize=16;" vertex="1" parent="C9zArqwFe7NC3kj0_H4k-68">
          <mxGeometry y="210" width="160" height="30" as="geometry" />
        </mxCell>
        <mxCell id="C9zArqwFe7NC3kj0_H4k-88" style="shape=partialRectangle;html=1;whiteSpace=wrap;connectable=0;fillColor=none;top=0;left=0;bottom=0;right=0;overflow=hidden;strokeColor=inherit;fontSize=16;" vertex="1" parent="C9zArqwFe7NC3kj0_H4k-87">
          <mxGeometry width="28" height="30" as="geometry">
            <mxRectangle width="28" height="30" as="alternateBounds" />
          </mxGeometry>
        </mxCell>
        <mxCell id="C9zArqwFe7NC3kj0_H4k-89" value="&lt;table style=&quot;border-left-style: none; border-top-style: none; border-right-style: none; border-bottom-style: none; border-collapse: collapse;&quot;&gt;&lt;tbody&gt;&lt;tr&gt;&lt;td style=&quot;border-left-style: none; border-top-style: none; border-right-style: none; border-bottom-style: none; padding-left: 15px;&quot;&gt;Subcategory&lt;/td&gt;&lt;/tr&gt;&lt;/tbody&gt;&lt;/table&gt;" style="shape=partialRectangle;html=1;whiteSpace=wrap;connectable=0;fillColor=none;top=0;left=0;bottom=0;right=0;align=left;spacingLeft=6;overflow=hidden;strokeColor=inherit;fontSize=13;" vertex="1" parent="C9zArqwFe7NC3kj0_H4k-87">
          <mxGeometry x="28" width="132" height="30" as="geometry">
            <mxRectangle width="132" height="30" as="alternateBounds" />
          </mxGeometry>
        </mxCell>
        <mxCell id="C9zArqwFe7NC3kj0_H4k-90" value="" style="shape=tableRow;horizontal=0;startSize=0;swimlaneHead=0;swimlaneBody=0;top=0;left=0;bottom=0;right=0;collapsible=0;dropTarget=0;fillColor=none;points=[[0,0.5],[1,0.5]];portConstraint=eastwest;strokeColor=inherit;fontSize=16;" vertex="1" parent="C9zArqwFe7NC3kj0_H4k-68">
          <mxGeometry y="240" width="160" height="30" as="geometry" />
        </mxCell>
        <mxCell id="C9zArqwFe7NC3kj0_H4k-91" value="" style="shape=partialRectangle;html=1;whiteSpace=wrap;connectable=0;fillColor=none;top=0;left=0;bottom=0;right=0;overflow=hidden;strokeColor=inherit;fontSize=13;" vertex="1" parent="C9zArqwFe7NC3kj0_H4k-90">
          <mxGeometry width="28" height="30" as="geometry">
            <mxRectangle width="28" height="30" as="alternateBounds" />
          </mxGeometry>
        </mxCell>
        <mxCell id="C9zArqwFe7NC3kj0_H4k-92" value="&lt;table style=&quot;border-left-style: none; border-top-style: none; border-right-style: none; border-bottom-style: none; border-collapse: collapse;&quot;&gt;&lt;tbody&gt;&lt;tr&gt;&lt;td style=&quot;border-left-style: none; border-top-style: none; border-right-style: none; border-bottom-style: none; padding-left: 15px;&quot;&gt;Product_line&lt;/td&gt;&lt;/tr&gt;&lt;/tbody&gt;&lt;/table&gt;" style="shape=partialRectangle;html=1;whiteSpace=wrap;connectable=0;fillColor=none;top=0;left=0;bottom=0;right=0;align=left;spacingLeft=6;overflow=hidden;strokeColor=inherit;fontSize=13;" vertex="1" parent="C9zArqwFe7NC3kj0_H4k-90">
          <mxGeometry x="28" width="132" height="30" as="geometry">
            <mxRectangle width="132" height="30" as="alternateBounds" />
          </mxGeometry>
        </mxCell>
        <mxCell id="C9zArqwFe7NC3kj0_H4k-93" style="shape=tableRow;horizontal=0;startSize=0;swimlaneHead=0;swimlaneBody=0;top=0;left=0;bottom=0;right=0;collapsible=0;dropTarget=0;fillColor=none;points=[[0,0.5],[1,0.5]];portConstraint=eastwest;strokeColor=inherit;fontSize=16;" vertex="1" parent="C9zArqwFe7NC3kj0_H4k-68">
          <mxGeometry y="270" width="160" height="30" as="geometry" />
        </mxCell>
        <mxCell id="C9zArqwFe7NC3kj0_H4k-94" style="shape=partialRectangle;html=1;whiteSpace=wrap;connectable=0;fillColor=none;top=0;left=0;bottom=0;right=0;overflow=hidden;strokeColor=inherit;fontSize=16;" vertex="1" parent="C9zArqwFe7NC3kj0_H4k-93">
          <mxGeometry width="28" height="30" as="geometry">
            <mxRectangle width="28" height="30" as="alternateBounds" />
          </mxGeometry>
        </mxCell>
        <mxCell id="C9zArqwFe7NC3kj0_H4k-95" value="&lt;table style=&quot;border-left-style: none; border-top-style: none; border-right-style: none; border-bottom-style: none; border-collapse: collapse;&quot;&gt;&lt;tbody&gt;&lt;tr&gt;&lt;td style=&quot;border-left-style: none; border-top-style: none; border-right-style: none; border-bottom-style: none; padding-left: 15px;&quot;&gt;Maintenace&lt;/td&gt;&lt;/tr&gt;&lt;/tbody&gt;&lt;/table&gt;" style="shape=partialRectangle;html=1;whiteSpace=wrap;connectable=0;fillColor=none;top=0;left=0;bottom=0;right=0;align=left;spacingLeft=6;overflow=hidden;strokeColor=inherit;fontSize=13;" vertex="1" parent="C9zArqwFe7NC3kj0_H4k-93">
          <mxGeometry x="28" width="132" height="30" as="geometry">
            <mxRectangle width="132" height="30" as="alternateBounds" />
          </mxGeometry>
        </mxCell>
        <mxCell id="C9zArqwFe7NC3kj0_H4k-96" style="shape=tableRow;horizontal=0;startSize=0;swimlaneHead=0;swimlaneBody=0;top=0;left=0;bottom=0;right=0;collapsible=0;dropTarget=0;fillColor=none;points=[[0,0.5],[1,0.5]];portConstraint=eastwest;strokeColor=inherit;fontSize=16;" vertex="1" parent="C9zArqwFe7NC3kj0_H4k-68">
          <mxGeometry y="300" width="160" height="30" as="geometry" />
        </mxCell>
        <mxCell id="C9zArqwFe7NC3kj0_H4k-97" style="shape=partialRectangle;html=1;whiteSpace=wrap;connectable=0;fillColor=none;top=0;left=0;bottom=0;right=0;overflow=hidden;strokeColor=inherit;fontSize=16;" vertex="1" parent="C9zArqwFe7NC3kj0_H4k-96">
          <mxGeometry width="28" height="30" as="geometry">
            <mxRectangle width="28" height="30" as="alternateBounds" />
          </mxGeometry>
        </mxCell>
        <mxCell id="C9zArqwFe7NC3kj0_H4k-98" value="&lt;table style=&quot;border-left-style: none; border-top-style: none; border-right-style: none; border-bottom-style: none; border-collapse: collapse;&quot;&gt;&lt;tbody&gt;&lt;tr&gt;&lt;td style=&quot;border-left-style: none; border-top-style: none; border-right-style: none; border-bottom-style: none; padding-left: 15px;&quot;&gt;Cost&lt;/td&gt;&lt;/tr&gt;&lt;/tbody&gt;&lt;/table&gt;" style="shape=partialRectangle;html=1;whiteSpace=wrap;connectable=0;fillColor=none;top=0;left=0;bottom=0;right=0;align=left;spacingLeft=6;overflow=hidden;strokeColor=inherit;fontSize=13;" vertex="1" parent="C9zArqwFe7NC3kj0_H4k-96">
          <mxGeometry x="28" width="132" height="30" as="geometry">
            <mxRectangle width="132" height="30" as="alternateBounds" />
          </mxGeometry>
        </mxCell>
        <mxCell id="C9zArqwFe7NC3kj0_H4k-99" style="shape=tableRow;horizontal=0;startSize=0;swimlaneHead=0;swimlaneBody=0;top=0;left=0;bottom=0;right=0;collapsible=0;dropTarget=0;fillColor=none;points=[[0,0.5],[1,0.5]];portConstraint=eastwest;strokeColor=inherit;fontSize=16;" vertex="1" parent="C9zArqwFe7NC3kj0_H4k-68">
          <mxGeometry y="330" width="160" height="30" as="geometry" />
        </mxCell>
        <mxCell id="C9zArqwFe7NC3kj0_H4k-100" style="shape=partialRectangle;html=1;whiteSpace=wrap;connectable=0;fillColor=none;top=0;left=0;bottom=0;right=0;overflow=hidden;strokeColor=inherit;fontSize=16;" vertex="1" parent="C9zArqwFe7NC3kj0_H4k-99">
          <mxGeometry width="28" height="30" as="geometry">
            <mxRectangle width="28" height="30" as="alternateBounds" />
          </mxGeometry>
        </mxCell>
        <mxCell id="C9zArqwFe7NC3kj0_H4k-101" value="&lt;table style=&quot;border-left-style: none; border-top-style: none; border-right-style: none; border-bottom-style: none; border-collapse: collapse;&quot;&gt;&lt;tbody&gt;&lt;tr&gt;&lt;td style=&quot;border-left-style: none; border-top-style: none; border-right-style: none; border-bottom-style: none; padding-left: 15px;&quot;&gt;Start_Date&lt;/td&gt;&lt;/tr&gt;&lt;/tbody&gt;&lt;/table&gt;" style="shape=partialRectangle;html=1;whiteSpace=wrap;connectable=0;fillColor=none;top=0;left=0;bottom=0;right=0;align=left;spacingLeft=6;overflow=hidden;strokeColor=inherit;fontSize=13;" vertex="1" parent="C9zArqwFe7NC3kj0_H4k-99">
          <mxGeometry x="28" width="132" height="30" as="geometry">
            <mxRectangle width="132" height="30" as="alternateBounds" />
          </mxGeometry>
        </mxCell>
        <mxCell id="C9zArqwFe7NC3kj0_H4k-102" value="" style="edgeStyle=entityRelationEdgeStyle;fontSize=12;html=1;endArrow=ERzeroToMany;startArrow=ERmandOne;rounded=0;exitX=1;exitY=0.5;exitDx=0;exitDy=0;" edge="1" parent="1" source="C9zArqwFe7NC3kj0_H4k-7" target="C9zArqwFe7NC3kj0_H4k-44">
          <mxGeometry width="100" height="100" relative="1" as="geometry">
            <mxPoint x="380" y="350" as="sourcePoint" />
            <mxPoint x="480" y="250" as="targetPoint" />
          </mxGeometry>
        </mxCell>
        <mxCell id="C9zArqwFe7NC3kj0_H4k-103" value="" style="edgeStyle=entityRelationEdgeStyle;fontSize=12;html=1;endArrow=ERzeroToMany;startArrow=ERmandOne;rounded=0;entryX=1;entryY=0.5;entryDx=0;entryDy=0;exitX=0;exitY=0.5;exitDx=0;exitDy=0;" edge="1" parent="1" source="C9zArqwFe7NC3kj0_H4k-69" target="C9zArqwFe7NC3kj0_H4k-41">
          <mxGeometry width="100" height="100" relative="1" as="geometry">
            <mxPoint x="590" y="170" as="sourcePoint" />
            <mxPoint x="640" y="250" as="targetPoint" />
          </mxGeometry>
        </mxCell>
      </root>
    </mxGraphModel>
  </diagram>
</mxfile>
